<svg width="21" height="21" viewBox="0 0 21 21" fill="none" xmlns="http://www.w3.org/2000/svg">
<path fill-rule="evenodd" clip-rule="evenodd" d="M10.5 21C16.299 21 21 16.299 21 10.5C21 4.70101 16.299 0 10.5 0C4.70101 0 0 4.70101 0 10.5C0 16.299 4.70101 21 10.5 21ZM6.64605 6.64608C6.95578 6.33636 7.45794 6.33636 7.76767 6.64608L10.1816 9.05999L12.5941 6.64743C12.9046 6.33696 13.408 6.33696 13.7184 6.64743C14.0289 6.9579 14.0289 7.46126 13.7184 7.77173L11.3059 10.1843L13.7171 12.5955C14.0268 12.9053 14.0268 13.4074 13.7171 13.7171C13.4074 14.0269 12.9052 14.0269 12.5955 13.7171L10.1843 11.3059L7.77167 13.7185C7.4612 14.029 6.95783 14.029 6.64737 13.7185C6.3369 13.408 6.3369 12.9047 6.64737 12.5942L9.05996 10.1816L6.64605 7.7677C6.33633 7.45797 6.33633 6.95581 6.64605 6.64608Z" fill="#ECECEC"/>
</svg>
