<svg width="138" height="111" viewBox="0 0 138 111" fill="none" xmlns="http://www.w3.org/2000/svg">
<g filter="url(#filter0_d_1021_821)">
<path d="M117.996 18.9952C116.116 13.1217 115.411 6.54332 116.351 4.1939C117.526 1.37461 119.875 0.199898 123.164 0.669781C126.688 1.13966 129.273 3.95896 131.152 9.59755C132.797 14.0614 133.972 26.2784 133.972 36.6158C134.207 51.6521 133.032 57.7605 128.568 67.1582C125.514 73.7365 120.11 81.7246 116.351 85.2487C112.592 88.7728 105.544 93.2367 100.845 95.1162C95.9112 97.2307 89.5678 98.8753 86.7485 98.8753C83.6942 99.1102 78.2906 96.056 74.7665 92.5319C71.2423 89.0077 67.7182 83.839 67.0134 81.2547C65.8387 77.0257 64.664 77.7306 57.1459 86.8933C52.4471 92.5319 45.6338 98.6403 42.1096 100.285C37.8807 102.399 33.1819 102.869 29.1879 101.93C25.8987 100.755 20.4951 97.2307 17.4408 93.7066C14.6215 89.9475 10.1577 81.0197 8.04318 73.7365C5.92871 65.9835 4.04918 51.1822 4.04918 39.4351C3.81424 21.1097 4.28412 18.2904 8.51306 15.2361C11.8022 12.8867 13.9167 12.6518 15.5613 14.2964C16.9709 15.706 18.1457 26.0435 18.1457 37.3206C18.3806 48.5978 19.7902 62.4594 21.4348 68.3329C22.8445 74.2064 25.8987 80.7848 28.0132 83.1342C30.3626 85.4836 34.3566 87.3632 37.4108 87.1282C40.2301 87.1282 44.9289 84.3089 47.9832 80.7848C51.0374 77.0257 54.7965 69.9775 56.4411 64.8088C58.5555 58.9352 59.2604 49.7725 58.5555 40.1399C57.8507 31.682 58.0856 22.9892 59.2603 20.8747C60.4351 18.5253 63.4893 16.6458 66.0736 16.6458C68.658 16.6458 71.2424 18.0554 71.9472 19.7C72.652 21.1097 74.0616 34.7363 75.4713 49.5376C76.8809 65.2787 78.9954 77.7306 80.64 79.6101C82.2846 81.2547 86.2786 82.6643 89.5678 82.6643C92.8569 82.6643 98.9654 80.08 103.429 77.2607C107.893 74.2064 113.767 68.098 116.351 63.6341C119.64 57.9955 121.285 51.4171 121.285 42.4893C121.05 35.4411 119.64 24.8687 117.996 18.9952Z" fill="#F5B14A"/>
</g>
<defs>
<filter id="filter0_d_1021_821" x="0" y="0.569092" width="138" height="109.822" filterUnits="userSpaceOnUse" color-interpolation-filters="sRGB">
<feFlood flood-opacity="0" result="BackgroundImageFix"/>
<feColorMatrix in="SourceAlpha" type="matrix" values="0 0 0 0 0 0 0 0 0 0 0 0 0 0 0 0 0 0 127 0" result="hardAlpha"/>
<feOffset dy="4"/>
<feGaussianBlur stdDeviation="2"/>
<feComposite in2="hardAlpha" operator="out"/>
<feColorMatrix type="matrix" values="0 0 0 0 0 0 0 0 0 0 0 0 0 0 0 0 0 0 0.25 0"/>
<feBlend mode="normal" in2="BackgroundImageFix" result="effect1_dropShadow_1021_821"/>
<feBlend mode="normal" in="SourceGraphic" in2="effect1_dropShadow_1021_821" result="shape"/>
</filter>
</defs>
</svg>
