<svg width="144" height="190" viewBox="0 0 144 190" fill="none" xmlns="http://www.w3.org/2000/svg">
<path d="M62.9127 3.50658C65.1279 2.10395 67.5645 0.738228 68.2659 0.479848C68.9674 0.221468 70.3703 0.0369114 71.404 0C72.4008 0 73.8406 0.184557 74.5421 0.369114C75.2435 0.590582 77.8278 1.9563 84.6209 6.09038L89.2726 5.38906C91.82 4.98304 94.8104 4.68775 95.8441 4.72466C97.0624 4.76157 98.4653 5.13068 99.536 5.68435C100.533 6.1642 101.825 7.1239 102.453 7.82521C103.08 8.48962 104.668 10.5197 105.997 12.3653C107.473 14.3954 108.803 15.8719 109.467 16.1303C110.058 16.3887 112.31 17.0161 114.488 17.5329C116.703 18.0497 118.992 18.7141 119.583 19.0094C120.173 19.3047 121.281 20.1167 122.019 20.7442C122.758 21.4086 123.681 22.5529 124.013 23.2542C124.382 23.9555 125.231 26.6131 125.859 29.16C126.523 31.7069 127.225 34.0692 127.446 34.4014C127.705 34.7336 129.551 36.247 131.581 37.7234C133.612 39.2368 135.753 41.0455 136.344 41.7468C136.898 42.4481 137.599 43.4816 137.857 44.1091C138.079 44.6997 138.411 45.807 138.559 46.5084C138.707 47.2835 138.485 49.8673 138.042 52.7833C137.599 55.5147 137.378 58.1723 137.488 58.6891C137.636 59.2059 138.78 61.3467 140.11 63.4876C141.402 65.6284 142.62 67.9539 142.842 68.6552C143.026 69.3565 143.211 70.8699 143.211 71.9772C143.211 73.1215 142.915 74.6348 142.509 75.4838C142.14 76.2958 140.922 78.4736 139.777 80.2823C138.67 82.0909 137.636 84.0103 137.488 84.5271C137.341 85.0438 137.599 87.7015 138.042 90.4329C138.707 94.7146 138.744 95.7112 138.374 97.4461C138.116 98.6272 137.451 100.104 136.75 100.953C136.122 101.765 134.461 103.315 133.021 104.385C131.618 105.456 129.735 106.969 128.812 107.707C127.188 109.073 127.114 109.258 125.97 113.798C125.305 116.382 124.456 119.113 124.05 119.851C123.681 120.626 122.721 121.844 121.946 122.583C121.133 123.284 119.546 124.244 118.401 124.687C117.22 125.13 115.928 125.499 115.522 125.499C115.116 125.499 114.783 125.609 114.783 125.757C114.783 125.942 119.435 136.424 125.121 149.122C130.806 161.82 135.458 172.635 135.458 173.188C135.458 173.779 135.052 174.628 134.535 175.145C134.055 175.661 133.353 176.067 132.984 176.067C132.615 176.067 128.554 175.624 123.939 175.071C119.324 174.48 115.485 174.111 115.411 174.222C115.337 174.332 113.307 177.212 110.907 180.681C108.507 184.151 106.144 187.399 105.591 187.99C104.963 188.654 104.262 188.986 103.523 189.023C102.932 189.023 102.046 188.728 101.603 188.359C101.16 187.99 97.8377 181.05 93.7398 171.823C89.8264 163.111 85.0639 152.444 79.6738 140.448L76.9049 141.814C74.5421 143.032 73.8406 143.216 71.5886 143.216C69.2997 143.216 68.709 143.069 63.6511 140.374L61.7313 144.656C60.6607 147.018 55.8982 157.649 51.0988 168.316C45.5979 180.571 42.1276 187.953 41.6107 188.359C41.1308 188.728 40.3555 189.023 39.8386 189.023C39.3218 188.986 38.5834 188.765 38.1773 188.47C37.7712 188.211 35.2976 184.889 32.6395 181.087C29.0584 175.993 27.6555 174.222 27.1017 174.222C26.6956 174.222 22.9668 174.628 18.795 175.145C14.6232 175.661 10.9313 176.067 10.5991 176.067C10.2299 176.067 9.4546 175.551 8.82699 174.96C8.19937 174.369 7.71943 173.52 7.71943 173.114C7.71943 172.708 9.97147 167.356 12.7404 161.229C15.5093 155.065 20.161 144.693 23.0776 138.159C25.9941 131.589 28.32 126.126 28.2462 125.979C28.1723 125.794 27.4709 125.536 26.6956 125.388C25.8834 125.203 24.5912 124.724 23.779 124.318C22.9668 123.912 21.7485 123.063 21.084 122.398C20.3825 121.771 19.4965 120.59 19.0904 119.777C18.6843 118.965 17.8351 116.308 17.2444 113.872C16.543 110.919 15.8784 109.147 15.3616 108.593C14.9186 108.113 13.368 106.858 11.9651 105.825C10.5622 104.791 8.75315 103.352 7.97786 102.651C7.20257 101.912 6.24269 100.805 5.8735 100.214C5.50431 99.6238 4.98745 98.295 4.76594 97.2615C4.43368 95.7481 4.50751 94.4932 5.13513 90.2483C5.68891 86.7049 5.79966 84.7855 5.57815 84.158C5.39356 83.6412 4.43367 81.9802 3.47379 80.4668C2.47699 78.9535 1.29559 76.8864 0.852571 75.8529C0.224955 74.561 -0.0334753 73.3429 0.0034433 71.7926C0.0034433 70.5746 0.188036 68.9874 0.446466 68.2861C0.704897 67.5848 1.92321 65.3332 3.14152 63.303C4.39676 61.2729 5.54123 59.2059 5.68891 58.6891C5.83658 58.1723 5.57815 55.5886 5.13513 52.7833C4.50751 48.6492 4.43368 47.468 4.76594 45.9547C4.98745 44.9581 5.50431 43.6293 5.8735 43.0018C6.24269 42.3743 7.20257 41.3038 7.97786 40.5656C8.75315 39.8643 10.7098 38.314 12.3343 37.1698C13.9587 36.0255 15.5093 34.7336 15.7677 34.3276C15.9892 33.9216 16.7276 31.5592 17.3552 29.0862C17.9828 26.5762 18.7581 24.0662 19.0534 23.4387C19.3488 22.8482 20.1241 21.7777 20.7886 21.1133C21.4162 20.412 22.5607 19.563 23.336 19.157C24.0744 18.7879 26.4741 18.0497 28.6892 17.5329C30.8674 17.0161 33.1194 16.3887 33.7101 16.1303C34.3747 15.8719 35.6668 14.4693 37.0328 12.5499C38.2511 10.815 39.8755 8.78491 40.577 7.97286C41.2784 7.19772 42.6444 6.1642 43.6412 5.68435C44.6749 5.13068 46.1517 4.76157 47.3331 4.72466C48.3668 4.68775 51.3941 4.98304 58.8148 6.05347L62.9127 3.50658Z" fill="#030203"/>
<path d="M67.3429 7.97284C67.9336 7.56682 68.8566 7.01315 69.3734 6.75477C69.8903 6.5333 70.8502 6.31183 71.4778 6.31183C72.1423 6.27492 73.1391 6.45948 73.6929 6.71786C74.2836 6.97624 75.2435 7.52991 75.8342 7.97284C76.4249 8.41578 78.3446 9.48621 80.0798 10.3352C82.701 11.6271 83.5871 11.8855 85.433 11.8855C86.6513 11.8855 88.165 11.7747 88.7557 11.664C89.3464 11.5532 90.7862 11.2949 91.8938 11.1472C93.0013 10.9996 94.6257 10.8888 95.4749 10.8888C96.6193 10.8888 97.1731 11.1103 97.8007 11.8116C98.2438 12.3284 98.8714 13.0666 99.2036 13.4726C99.5359 13.8787 100.164 14.7276 100.533 15.3182C100.939 15.9457 102.083 17.3852 103.117 18.5664C104.151 19.7476 105.664 21.0395 106.477 21.4086C107.289 21.7777 110.021 22.6267 112.531 23.328C115.485 24.1031 117.405 24.8413 117.884 25.3212C118.327 25.7641 118.844 26.7607 119.103 27.5359C119.324 28.311 119.915 30.4519 120.321 32.2975C120.764 34.1061 121.502 36.2839 121.982 37.0959C122.462 37.908 123.533 39.1999 124.345 39.9381C125.194 40.7132 126.56 41.7837 127.409 42.3373C128.295 42.9279 129.292 43.6292 129.661 43.9245C130.068 44.2198 130.843 44.9211 131.434 45.4748C132.43 46.4345 132.504 46.6929 132.357 48.6123C132.283 49.7934 131.95 52.3403 131.655 54.2597C131.323 56.4006 131.212 58.3569 131.36 59.2428C131.507 60.0548 132.172 61.7896 132.836 63.1185C133.501 64.4473 134.239 65.7392 134.461 66.0345C134.719 66.3298 135.089 66.9203 135.347 67.3264C135.568 67.7693 136.048 68.6921 136.418 69.3934C136.75 70.0947 137.045 71.1651 137.082 71.7188C137.082 72.3094 137.008 72.8631 136.824 72.9369C136.676 73.0107 136.639 73.2322 136.75 73.4536C136.861 73.6751 136.676 74.0442 136.381 74.2657C136.048 74.5241 135.79 74.967 135.827 75.1885C135.827 75.4469 135.679 75.7052 135.495 75.7422C135.347 75.816 134.756 76.5911 134.239 77.5139C133.686 78.4367 132.873 79.987 132.357 81.0205C131.877 82.0171 131.397 83.5305 131.286 84.3425C131.212 85.1546 131.286 86.8156 131.434 88.0336C131.618 89.2517 131.84 90.6544 131.95 91.1711C132.061 91.6879 132.246 92.906 132.357 93.9395C132.504 95.1206 132.393 96.1542 132.061 96.8555C131.803 97.4461 130.732 98.5165 129.735 99.2547C128.702 99.956 127.705 100.731 127.483 100.953C127.262 101.137 126.671 101.58 126.228 101.875C125.785 102.171 124.825 102.946 124.124 103.536C123.422 104.127 122.425 105.308 121.982 106.12C121.502 106.932 120.875 108.593 120.543 109.811L120.489 110.033C120.204 111.208 119.871 112.578 119.767 113.133C119.657 113.724 119.509 114.388 119.435 114.61C119.361 114.831 119.214 115.496 119.029 116.086C118.881 116.677 118.327 117.6 117.774 118.116C117.257 118.596 116.149 119.15 115.337 119.335C114.525 119.519 113.565 119.741 113.196 119.814C112.864 119.888 112.236 120.036 111.83 120.147C111.424 120.257 110.722 120.442 110.242 120.553C109.799 120.663 108.913 120.848 108.323 120.959C107.732 121.069 107.141 121.254 107.03 121.438C106.92 121.586 106.514 121.808 106.107 121.918C105.701 122.029 104.705 122.878 103.892 123.764C103.08 124.687 102.157 125.794 101.862 126.237C101.566 126.68 101.16 127.27 100.939 127.492C100.717 127.713 100.09 128.562 99.499 129.374C98.9083 130.186 98.0961 131.146 97.7269 131.478C97.2839 131.921 97.05 131.983 97.0254 131.663C97.0254 131.294 96.9885 131.294 96.8408 131.663C96.7301 132.032 96.5824 132.032 96.1394 131.663C95.8071 131.441 95.4749 131.331 95.3272 131.478C95.2164 131.663 95.2903 131.774 95.5118 131.774C95.7702 131.774 95.881 131.921 95.7702 132.143C95.6471 132.389 95.1795 132.389 94.3673 132.143C93.7397 131.921 92.9275 131.774 92.6321 131.774C92.1522 131.774 92.1522 131.811 92.6321 132.143C93.0013 132.389 93.0259 132.512 92.706 132.512C92.4845 132.512 92.1891 132.364 92.0783 132.143C91.9676 131.921 92.1891 131.626 92.5214 131.441C92.9644 131.183 92.2999 131.109 90.417 131.183C88.9034 131.22 87.9804 131.22 88.3865 131.109C88.7926 131.035 89.2356 130.851 89.3833 130.74C89.531 130.592 88.8664 130.519 87.9065 130.592C86.6144 130.666 86.319 130.592 86.7252 130.334C87.0943 130.063 87.1189 129.928 86.799 129.928C86.5775 129.928 86.2821 130.076 86.1714 130.297C86.0606 130.519 85.6914 130.666 85.3222 130.666C84.8054 130.666 84.7685 130.592 85.2484 130.334C85.6545 130.113 85.3222 129.78 83.7717 128.931C82.6641 128.304 81.2981 127.713 80.7074 127.566C80.0798 127.418 79.7845 127.16 79.9321 126.864C80.0798 126.569 80.2398 126.557 80.4121 126.828C80.5597 127.086 80.9289 127.049 81.5565 126.717C82.3688 126.311 82.4057 126.237 81.7411 126.2C81.1135 126.163 81.1504 126.126 81.9257 125.868C82.7749 125.609 82.7379 125.573 81.5565 125.536C80.8551 125.499 80.0798 125.351 79.8214 125.203C79.5999 125.056 80.4859 124.724 81.8519 124.465C83.2179 124.207 86.0606 123.395 88.2019 122.693C90.3432 121.955 93.4074 120.737 95.0318 119.925C96.6563 119.113 98.7237 118.043 99.6467 117.489C100.57 116.972 102.563 115.57 104.077 114.388C105.591 113.207 107.695 111.472 108.692 110.476C109.725 109.516 111.202 107.929 112.014 107.006C112.827 106.046 113.823 104.828 114.23 104.238C114.636 103.684 115.189 103.02 115.411 102.724C115.669 102.466 115.891 102.097 115.891 101.875C115.891 101.654 116.002 101.506 116.149 101.506C116.334 101.543 116.925 100.657 117.515 99.5869C118.143 98.5165 119.14 96.634 119.73 95.4159C120.358 94.1609 121.059 92.6845 121.318 92.0939C121.539 91.4664 122.019 90.1376 122.352 89.141C122.721 88.1075 123.164 86.7048 123.348 86.0035C123.533 85.3022 123.902 83.6412 124.198 82.3124C124.493 80.9836 124.862 78.8427 125.01 77.5139C125.157 76.1851 125.268 73.6013 125.268 71.7926C125.268 69.984 125.157 67.068 124.973 65.3331C124.825 63.5983 124.53 61.8266 124.345 61.3467C124.161 60.9038 124.087 60.5347 124.198 60.5347C124.308 60.5347 124.198 59.981 123.976 59.3166C123.791 58.6891 123.533 57.877 123.459 57.5817C123.385 57.2865 122.979 55.9578 122.573 54.6291L122.573 54.6288C122.13 53.3 121.65 51.8974 121.466 51.4914C121.281 51.0853 120.727 49.9042 120.284 48.9076C119.804 47.8741 119.177 46.7667 118.844 46.3976C118.512 46.0285 117.774 45.7701 117.072 45.7701C116.223 45.7701 115.522 46.1023 114.82 46.7667C114.156 47.4311 113.786 48.1324 113.86 48.723C113.897 49.2398 114.451 50.7162 115.079 52.045C115.743 53.3739 116.26 54.7027 116.26 54.998C116.26 55.2932 116.445 55.7731 116.703 56.0315C116.961 56.2899 117.072 56.4744 116.888 56.4744C116.74 56.4744 116.814 56.9173 117.035 57.471C117.257 58.0616 117.589 59.0951 117.774 59.7964C117.958 60.4977 118.217 61.6789 118.327 62.3802C118.438 63.0815 118.697 64.4104 118.844 65.3331C119.029 66.2559 119.103 69.5779 119.029 72.7154C118.992 75.8529 118.807 78.9165 118.66 79.544C118.512 80.1715 118.364 80.799 118.327 81.0205C118.291 81.242 118.106 81.9802 117.958 82.6815C117.774 83.3828 117.146 85.4868 116.518 87.2954C115.891 89.1041 114.857 91.5771 114.156 92.7214C113.491 93.9026 113.011 94.8992 113.122 94.9361C113.233 95.0099 113.048 95.3052 112.753 95.6005C112.42 95.8958 112.162 96.3018 112.162 96.5233C112.162 96.7447 111.387 97.9628 110.464 99.2916C109.504 100.62 107.141 103.278 105.221 105.234C103.191 107.228 100.311 109.664 98.5391 110.808C96.8039 111.952 94.072 113.539 92.4475 114.351C90.8231 115.164 89.1618 115.865 88.7557 115.939C88.3496 116.012 87.9435 116.197 87.8327 116.345C87.722 116.529 86.7252 116.898 85.6176 117.194C84.51 117.526 83.4394 117.821 83.2179 117.895C82.9964 117.932 81.9257 118.19 80.8182 118.412C79.7106 118.633 78.0493 118.892 77.1263 119.039C76.2034 119.15 73.5452 119.224 71.2193 119.224C68.8935 119.224 66.5676 119.15 66.0507 119.076C65.5339 119.002 64.4632 118.818 63.651 118.707C62.8388 118.559 61.1775 118.19 59.9592 117.895C58.7409 117.563 57.4856 117.231 57.1903 117.194C56.8949 117.12 56.5996 117.046 56.5257 117.046C56.4888 117.009 56.3411 116.935 56.1566 116.898C56.0089 116.825 55.4551 116.566 54.8644 116.345C54.3106 116.086 53.7568 115.902 53.5723 115.902C53.4246 115.902 51.9109 115.164 50.1757 114.241C48.4406 113.355 46.4839 112.358 45.8193 112.063C45.1917 111.731 44.638 111.325 44.638 111.103C44.638 110.882 44.3795 110.734 44.0842 110.734C43.7888 110.734 43.5304 110.587 43.5304 110.365C43.5304 110.144 42.792 109.664 41.8691 109.258C40.3554 108.593 40.097 108.556 38.9894 109.073C37.9188 109.59 37.7342 109.553 37.0696 108.999C36.6635 108.667 35.6667 107.671 34.8545 106.822C33.6731 105.567 33.4516 105.124 33.747 104.57C33.9316 104.201 34.1531 103.573 34.19 103.167C34.2638 102.761 34.2638 102.097 34.1531 101.691C34.0423 101.285 33.6731 100.62 33.3039 100.214C32.9348 99.8084 32.1595 98.7379 31.5319 97.8152C30.9412 96.8924 30.1659 95.6374 29.7967 95.0468C29.4644 94.4562 28.9106 93.3489 28.5784 92.6476C28.283 91.9463 27.7662 90.8758 27.5077 90.2483C27.2124 89.6208 26.7694 88.4766 26.5109 87.6645C26.2894 86.8525 25.9941 86.0404 25.8464 85.819C25.7356 85.5975 25.6249 85.3022 25.551 85.0807C25.5141 84.8593 25.3664 84.3056 25.2557 83.7888C25.1449 83.2721 24.9603 82.46 24.8496 81.9433C24.7388 81.4265 24.5912 80.7621 24.5173 80.4668C24.4066 80.1715 24.222 78.9165 24.0743 77.6985C23.9266 76.4804 23.8528 73.7489 23.8528 71.6081C23.8528 69.4672 23.9266 66.9942 23.9635 66.0714C24.0374 65.1486 24.222 64.0043 24.3696 63.4876C24.5542 62.9708 24.7388 62.0849 24.8496 61.4574C24.9603 60.83 25.108 59.9441 25.2188 59.4273C25.3664 58.9106 25.9571 57.1019 26.5848 55.3671C27.2124 53.6322 28.3569 51.0484 29.0583 49.6458C29.7967 48.2432 30.9042 46.3238 31.5319 45.401C32.1225 44.4782 32.7132 43.6662 32.824 43.5554C32.9348 43.4447 33.4885 42.7065 34.1162 41.8944C34.7069 41.0824 36.5528 39.0891 38.251 37.465C39.9124 35.8409 41.8321 34.1061 42.4967 33.5893C43.1612 33.0726 44.2688 32.2605 45.0071 31.7807C45.7086 31.2639 48.0714 30.0089 50.2496 28.9016C52.4647 27.8312 55.1967 26.6131 56.3411 26.244C57.5225 25.838 59.7377 25.2843 61.2513 24.9521C62.765 24.6568 64.5002 24.3246 65.1278 24.2139C65.7554 24.1031 68.4874 23.9924 71.2193 23.9924C73.9513 23.9924 76.7202 24.0293 77.3109 24.1031C77.9016 24.1769 79.1568 24.3984 80.0798 24.5461C81.0028 24.7306 81.815 24.8783 81.9257 24.9152C82.0365 24.9521 82.6272 25.0997 83.2179 25.2843C83.8086 25.4319 85.4699 25.9487 86.9097 26.4285C88.3496 26.9084 90.3801 27.7204 91.4138 28.2372C92.4845 28.754 93.8504 29.16 94.4411 29.16C95.0318 29.16 95.844 28.7909 96.3609 28.2741C96.8408 27.7943 97.2839 26.9084 97.3577 26.3547C97.3946 25.7272 97.1362 24.8783 96.6932 24.2508C96.2871 23.6971 95.7333 23.2542 95.4749 23.2542C95.2533 23.2542 94.2565 22.8481 93.2597 22.3314C92.2999 21.8146 91.5246 21.5193 91.5246 21.667C91.5615 21.8515 91.34 21.7777 91.0816 21.5562C90.8231 21.2979 89.6048 20.818 88.3865 20.4858C87.1682 20.1167 86.0237 19.7476 85.8022 19.7107C85.5807 19.6368 84.7685 19.4154 83.9563 19.2308C83.144 19.0463 81.9627 18.751 81.372 18.6402C80.7813 18.5295 79.4153 18.308 78.4185 18.1604C77.4217 18.0127 74.2467 17.902 71.4039 17.902C68.5612 17.902 65.3862 18.0127 64.3894 18.1604C63.3557 18.308 61.9528 18.5295 61.2513 18.6402C60.5499 18.751 59.0362 19.1201 57.9286 19.4523C56.8211 19.7476 55.2336 20.2643 54.4214 20.5227C53.6092 20.7811 52.2801 21.2609 51.4679 21.5562C50.6557 21.8515 48.6252 22.8112 46.9269 23.6971L46.9264 23.6974C45.2283 24.5832 43.5304 25.4689 43.1243 25.6534C42.7551 25.838 42.4228 26.1332 42.4228 26.2809C42.4228 26.4655 42.2013 26.5762 41.9798 26.5762C41.7214 26.5762 41.1676 26.8715 40.7615 27.2037C40.3554 27.5728 39.3586 28.311 38.5464 28.8647C37.7342 29.4184 36.7005 30.1935 36.2574 30.6364C35.7775 31.0425 35.4083 31.1901 35.4083 31.0056C35.4083 30.821 35.6667 30.5626 35.9621 30.4519C36.2574 30.3411 36.442 30.0828 36.3313 29.8982C36.2205 29.7137 36.3682 29.566 36.5897 29.6029C36.8481 29.6767 37.0327 29.4184 36.9958 29.0492C36.922 28.5694 37.0696 28.4587 37.6973 28.6432C38.4356 28.8647 38.4725 28.8278 38.1034 28.2741C37.808 27.905 37.4019 27.7943 37.0327 27.9419C36.5159 28.2003 36.5159 28.1265 36.9589 27.2406C37.3281 26.4285 37.4757 26.3547 37.5865 26.8715C37.6603 27.2037 37.8818 27.6097 38.1403 27.7573C38.3618 27.905 38.6571 28.0526 38.8048 28.0526C38.9894 28.0526 39.0263 27.7573 38.9525 27.3882C38.8417 27.056 38.7679 26.6869 38.731 26.5762C38.6941 26.4655 38.6571 26.0963 38.6941 25.7641C38.6941 25.395 38.5833 25.1736 38.3618 25.2843C38.1403 25.395 37.9926 25.4319 37.9926 25.395C37.9926 25.3212 38.251 24.5091 38.5464 23.5494C38.8417 22.5528 38.9894 21.5562 38.8048 21.3348C38.6325 21.0149 38.6941 20.9534 38.9894 21.1502C39.2848 21.2979 39.4693 21.1871 39.4693 20.8549C39.4693 20.5227 39.2848 20.412 38.9894 20.5596C38.6941 20.7565 38.6325 20.695 38.8048 20.3751C39.0263 20.0429 39.2109 20.0429 39.6539 20.412C40.1339 20.7811 40.2077 20.7073 40.0231 19.9321C39.9124 19.4154 39.9493 19.2677 40.06 19.563C40.2446 20.006 40.3923 19.8952 40.7246 19.1939C40.983 18.6771 41.426 17.8651 41.7214 17.3852C42.0167 16.9054 42.5336 16.1672 42.8659 15.7981C43.235 15.4289 43.4566 14.8753 43.3458 14.58C43.235 14.2847 43.3458 14.0263 43.5304 14.0263C43.7519 14.0263 44.0473 13.731 44.1949 13.3988C44.3057 13.0297 44.7118 12.4391 45.081 12.1069C45.4502 11.7378 46.1885 11.258 46.7423 11.0365C47.333 10.815 48.5513 10.7781 49.622 10.9258C50.6188 11.0365 51.8002 11.221 52.2063 11.2949C52.6124 11.3687 53.683 11.5532 54.606 11.7009C55.5289 11.8485 57.0795 11.9224 58.1132 11.8855C59.4423 11.8485 60.8083 11.4425 63.0973 10.2983C64.8324 9.4493 66.7153 8.41578 67.3429 7.97284Z" fill="#FDD059"/>
<path d="M56.4519 19.9691C58.5932 19.3416 61.9158 18.6034 63.8356 18.2712C66.2722 17.902 69.0042 17.7913 72.8807 17.902C76.2403 18.0128 79.7106 18.345 81.7411 18.7879C83.5501 19.157 86.5775 19.9691 88.3865 20.5966C90.1955 21.1872 92.7798 22.1838 94.1089 22.8113C95.6594 23.5495 96.6562 24.2877 96.9885 24.8783C97.21 25.3951 97.3208 26.2071 97.21 26.687C97.0623 27.1299 96.6193 27.8681 96.1763 28.348C95.7702 28.7909 94.9949 29.16 94.478 29.16C93.9612 29.16 92.5583 28.6802 91.34 28.0896C90.1217 27.5359 87.7219 26.6131 85.9868 26.0595C84.2516 25.5058 81.5196 24.7676 79.8952 24.4723C77.9016 24.0663 75.1696 23.8817 71.4039 23.8817C67.3798 23.9186 64.8324 24.1401 62.1743 24.6937C60.1437 25.0998 57.2272 25.8749 55.7135 26.4286C54.1999 26.9453 51.5417 28.1265 49.8065 28.9755C48.0714 29.8613 45.3394 31.4854 43.715 32.6666C42.0906 33.8109 39.4693 36.0255 37.8818 37.5758C36.2943 39.163 34.0054 41.8206 32.7871 43.5555C31.5318 45.2903 29.8336 48.0956 28.9475 49.8304C28.0984 51.5652 26.8801 54.3705 26.2525 56.1053C25.6618 57.8402 24.8496 60.7562 24.4804 62.5648C23.9635 64.9641 23.7789 67.4371 23.8158 71.6081C23.8158 75.5946 24.0004 78.326 24.4804 80.6514C24.8496 82.4601 25.6249 85.3761 26.2156 87.1109C26.8432 88.8457 27.9507 91.5034 28.726 93.0167C29.4644 94.5301 31.0519 97.1877 32.2333 98.9226C34.0054 101.543 34.3376 102.245 34.1531 103.167C34.0423 103.758 33.5624 104.57 33.0824 104.939C32.6394 105.308 31.7903 105.604 31.1626 105.604C30.4243 105.567 29.7228 105.234 29.0952 104.57C28.5414 103.979 27.36 102.392 26.4371 100.953C25.5141 99.5131 24.0374 96.8555 23.1144 95.0469C22.2283 93.2382 20.9731 90.1376 20.3455 88.2182C19.7179 86.2989 18.9057 83.1983 18.5365 81.3896C18.0565 78.8797 17.872 76.4435 17.9089 71.4236C17.9089 66.0345 18.0565 64.0782 18.7211 60.9776C19.1641 58.9106 20.1978 55.3302 21.01 53.0786C21.8592 50.7901 23.0406 47.9848 23.6682 46.8775C24.2958 45.7702 25.3295 44.0353 25.9202 43.0018C26.5478 42.0052 28.2461 39.6798 29.649 37.8711C31.0888 36.0255 33.7839 33.2203 35.5929 31.5962C37.4388 29.9352 40.1708 27.7943 41.6844 26.7977C43.1981 25.8011 46.2624 24.1032 48.5144 23.0327C50.7664 21.9623 54.3106 20.5597 56.4519 19.9691Z" fill="#030203"/>
<path d="M114.008 48.5754C113.971 47.5788 114.193 47.1359 115.005 46.5453C115.559 46.1024 116.482 45.7702 117.072 45.7702C117.626 45.7702 118.364 46.0654 118.697 46.4346C119.029 46.7668 119.693 47.8003 120.136 48.7231C120.579 49.6458 121.392 51.5652 121.909 52.9679C122.425 54.4074 123.201 56.8805 123.644 58.5046C124.05 60.1287 124.567 62.8601 124.788 64.595C125.047 66.5144 125.12 70.1317 125.01 73.8228C124.862 77.2187 124.53 81.0574 124.198 82.497C123.865 83.9365 123.053 86.7418 122.389 88.7719C121.687 90.802 120.543 93.718 119.767 95.2314C118.992 96.7448 117.626 99.144 116.703 100.584C115.78 102.023 114.193 104.238 113.122 105.567C112.051 106.895 110.058 109.073 108.655 110.402C107.252 111.731 104.852 113.761 103.339 114.868C101.825 116.013 98.8344 117.858 96.6932 118.965C94.5519 120.11 91.4876 121.512 89.8632 122.103C88.2388 122.693 85.3961 123.542 83.5871 123.948C81.778 124.391 78.1969 124.908 75.6496 125.093C72.6591 125.351 69.6318 125.351 67.0844 125.13C64.8693 124.908 61.8789 124.502 60.4391 124.207C58.9624 123.912 56.3411 123.21 54.606 122.657C52.8708 122.103 49.6589 120.737 47.4068 119.63C45.1548 118.486 42.2382 116.788 40.8722 115.791C39.4693 114.831 38.1033 113.687 37.7711 113.244C37.4019 112.691 37.2911 111.989 37.4019 111.214C37.5496 110.513 37.9926 109.738 38.4725 109.442C38.9156 109.147 39.6908 108.889 40.2077 108.889C40.7246 108.889 42.5336 109.811 44.2687 110.956C46.0039 112.1 48.9205 113.761 50.7295 114.647C52.5385 115.496 55.049 116.566 56.2673 116.972C57.4856 117.378 60.2176 118.043 62.3589 118.486C65.2016 119.039 67.5644 119.261 71.2193 119.261C73.9882 119.261 77.6801 119.002 79.526 118.67C81.335 118.338 84.1777 117.674 85.8022 117.157C87.4266 116.64 90.1586 115.533 91.8937 114.758C93.6289 113.945 96.4347 112.321 98.1699 111.177C99.9051 110.033 102.822 107.671 104.631 105.899C106.44 104.127 108.913 101.396 110.058 99.8084C111.202 98.1843 112.9 95.4898 113.786 93.755C114.709 92.0201 115.965 89.2149 116.555 87.48C117.146 85.7452 117.958 83.0137 118.327 81.3896C118.881 79.1011 119.029 76.9972 119.029 71.7927C119.029 66.9204 118.844 64.3735 118.401 62.1957C118.032 60.5716 117.331 57.914 116.777 56.2899C116.223 54.6658 115.411 52.5618 114.931 51.6022C114.451 50.6055 114.045 49.2767 114.008 48.5754Z" fill="#030203"/>
<path d="M42.2382 16.0564C42.5336 15.9457 42.792 15.6135 42.792 15.3182C42.792 15.0229 42.9397 14.7645 43.0874 14.7645C43.272 14.7645 43.272 15.0967 43.0874 15.5028C42.9397 15.9088 42.6443 16.241 42.4228 16.241C42.2013 16.241 41.9798 16.5363 41.8691 16.8685C41.7952 17.2376 41.3891 18.1235 40.983 18.8248C40.4661 19.7476 40.2077 19.969 40.06 19.563C39.9124 19.2677 39.9124 19.3784 40.0231 19.8214C40.1339 20.3381 40.06 20.5965 39.8385 20.4858C39.617 20.3751 39.4693 20.5596 39.4693 20.8549C39.4693 21.1871 39.2848 21.2978 39.0263 21.1133C38.7064 20.941 38.6448 21.0026 38.8417 21.2978C38.9894 21.5562 38.8417 22.5528 38.5464 23.5125C38.251 24.5091 37.9926 25.3212 37.9926 25.3581C37.9926 25.4319 38.1403 25.395 38.3618 25.2843C38.5833 25.1735 38.6941 25.395 38.6941 25.7272C38.6571 26.0963 38.6941 26.4654 38.731 26.5762C38.7679 26.6869 38.8417 27.056 38.9525 27.3882C39.0263 27.7573 38.9894 28.0526 38.8048 28.0526C38.6571 28.0526 38.3618 27.905 38.1403 27.7573C37.8818 27.6097 37.6603 27.2037 37.5865 26.8715C37.4757 26.3547 37.3281 26.4285 36.9589 27.2406C36.5159 28.1264 36.5159 28.2003 37.0327 27.9419C37.4019 27.7942 37.7711 27.905 37.9926 28.2372C38.2141 28.5325 38.5833 28.6801 38.8048 28.5325C39.1002 28.4217 39.1371 28.4587 38.9894 28.6432C38.8048 28.8278 38.3987 28.9754 38.0664 28.9754C37.7342 28.9754 37.4757 29.1969 37.5127 29.4183C37.5865 29.6767 36.442 30.9317 34.9653 32.1867C33.5254 33.4786 31.1257 35.9886 29.6859 37.8341C28.2461 39.6797 26.5478 41.9682 25.9202 43.0017C25.2926 43.9983 24.2958 45.7701 23.6682 46.8774C23.0406 47.9848 21.8592 50.79 21.01 53.0416C20.1978 55.3301 19.1641 58.9105 18.7211 60.9776C18.0566 64.0781 17.9089 66.0344 17.9089 71.4235C17.872 76.4435 18.0566 78.8796 18.5365 81.3896C18.9057 83.1982 19.7179 86.2988 20.3455 88.2182C20.9731 90.1376 22.2284 93.2381 23.1144 95.0468C24.0374 96.8555 25.5141 99.5131 26.4371 100.953C27.36 102.392 28.5414 103.979 29.0952 104.57C29.6859 105.197 30.4243 105.567 31.0519 105.567C31.6426 105.567 32.4548 105.382 32.8978 105.161C33.3778 104.902 33.6362 104.828 33.4516 104.976C33.3039 105.087 34.2269 106.231 35.5191 107.486C37.7342 109.701 37.8449 109.885 37.5127 110.919C37.2173 111.768 37.2911 112.248 37.7342 113.023C38.1034 113.613 39.5801 114.905 41.0199 115.939C42.4967 116.935 45.7086 118.781 48.1452 119.962C50.5818 121.143 54.0891 122.546 55.8981 123.063C57.7071 123.579 60.8083 124.281 62.7281 124.613C64.9432 124.982 68.2289 125.203 71.5885 125.203C75.2804 125.203 76.7571 125.314 76.3879 125.573C75.9449 125.868 75.9449 125.905 76.4618 125.72C76.831 125.609 77.4955 125.499 77.9385 125.499C78.64 125.499 78.6769 125.425 78.2339 125.093C77.8278 124.797 77.9385 124.76 78.7876 124.945C79.3783 125.056 80.5597 125.314 81.3719 125.462C82.5164 125.72 82.6272 125.794 81.9257 125.868C81.1504 125.942 81.1135 125.979 81.7411 126.126C82.4426 126.274 82.4057 126.311 81.5565 126.754C80.9289 127.049 80.5597 127.086 80.4121 126.828C80.2398 126.557 80.0798 126.569 79.9321 126.864C79.7845 127.16 80.0798 127.418 80.7074 127.566C81.2981 127.713 82.6641 128.304 83.7717 128.931C85.3222 129.78 85.6545 130.113 85.2484 130.334C84.7685 130.592 84.8054 130.666 85.3222 130.666C85.6914 130.666 86.0606 130.519 86.1714 130.297C86.2821 130.076 86.5775 129.928 86.799 129.928C87.1189 129.928 87.0943 130.063 86.7251 130.334C86.319 130.592 86.6144 130.666 87.9065 130.592C88.8295 130.519 89.531 130.592 89.4571 130.74C89.3833 130.925 89.8632 131.072 90.4908 131.109C91.1554 131.109 92.0414 131.146 92.4475 131.109C92.9644 131.109 93.0382 131.146 92.6321 131.294C92.2629 131.441 92.669 131.7 95.401 132.475L93.9243 132.327C93.1121 132.217 92.0783 132.143 91.5984 132.143C91.0569 132.143 90.8723 131.995 91.0446 131.7C91.2661 131.405 91.0077 131.368 90.0478 131.589C89.0879 131.811 88.8295 131.774 89.0141 131.478C89.2356 131.146 88.6449 131.109 86.6144 131.257C85.1746 131.368 83.3656 131.626 82.6641 131.811C81.9626 131.995 79.5629 133.25 77.3109 134.616C73.9144 136.683 72.9914 137.089 71.5885 137.089C70.1856 137.089 69.3365 136.72 66.4199 134.911C64.5001 133.73 62.1743 132.438 61.2513 132.032C59.9222 131.478 59.0362 131.368 57.0057 131.478C55.6028 131.589 52.8339 131.921 50.8772 132.18C48.256 132.549 47.1115 132.586 46.447 132.29C45.967 132.069 44.0472 129.928 42.2382 127.529C39.8754 124.465 38.4356 122.915 37.2542 122.25C36.3313 121.734 33.4516 120.737 30.7935 120.073C27.397 119.224 25.7356 118.633 25.1449 118.043C24.5911 117.452 24.0005 115.791 23.1882 112.58C22.5606 110.033 21.6007 107.154 21.0839 106.157C20.3086 104.718 19.238 103.684 15.9522 101.248C13.6632 99.55 11.522 97.8151 11.2266 97.3353C10.9313 96.8924 10.6728 95.9327 10.6728 95.2314C10.6728 94.53 10.9313 92.4261 11.2266 90.6174C11.522 88.8088 11.7804 86.3726 11.7804 85.2653C11.7804 83.9365 11.485 82.6077 10.9313 81.3896C10.4513 80.3561 9.15918 78.1414 8.08854 76.4065C7.0179 74.6717 6.05801 72.6785 5.98418 71.9772C5.87342 70.9067 6.24261 69.9471 8.4208 66.2559C9.86063 63.8198 11.2266 61.236 11.4481 60.5346C11.7066 59.8333 11.7804 58.1723 11.7066 56.8435C11.5958 55.5147 11.2635 52.8571 11.0051 50.9008C10.599 48.0586 10.5621 47.1727 10.9682 46.3607C11.1897 45.8439 12.7772 44.4044 14.4755 43.1863C16.1368 41.9313 18.0566 40.5287 18.7211 40.0488C19.3487 39.5321 20.3455 38.4247 20.8624 37.5758C21.4531 36.653 22.376 33.9215 23.1144 31.0055C23.8159 28.2741 24.5542 25.801 24.8127 25.5057C25.0711 25.2474 25.5879 24.8413 25.9941 24.6199C26.4002 24.4353 28.8368 23.6971 31.458 22.9958C34.0423 22.3314 36.3682 21.8884 36.5897 22.073C36.885 22.2206 36.9589 22.1837 36.8112 21.9622C36.6635 21.7777 36.9589 21.3348 37.4757 21.0395C37.9926 20.7442 39.174 19.7107 40.06 18.751C40.9461 17.7543 41.6845 16.7947 41.6845 16.6101C41.6845 16.4255 41.9429 16.1672 42.2382 16.0564Z" fill="#E0A445"/>
<path d="M108.581 138.049C109.762 136.831 110.722 135.686 110.722 135.465C110.722 135.243 111.018 135.096 111.387 135.096C111.756 135.059 112.199 135.539 112.531 136.277C112.79 136.941 113.38 138.233 113.786 139.156C114.229 140.079 114.709 140.891 114.82 141.002C114.931 141.112 115.263 141.851 115.522 142.663C115.78 143.475 116.112 144.287 116.297 144.508C116.482 144.73 116.629 145.136 116.629 145.431C116.592 145.726 116.851 146.206 117.183 146.464C117.478 146.686 117.663 147.055 117.552 147.276C117.441 147.498 117.478 147.646 117.663 147.646C117.811 147.646 117.958 147.867 117.995 148.125C118.032 148.347 118.254 149.196 118.549 149.971C118.807 150.746 119.177 151.226 119.324 151.078C119.509 150.931 119.583 150.968 119.509 151.189C119.472 151.374 119.657 152.186 119.952 152.924C120.247 153.699 120.616 154.29 120.764 154.29C120.949 154.29 121.059 154.548 121.059 154.843C121.059 155.139 121.392 156.024 121.798 156.763C122.204 157.538 122.536 158.461 122.536 158.793C122.536 159.162 122.647 159.457 122.795 159.457C122.979 159.457 123.201 159.937 123.348 160.565C123.533 161.155 123.902 161.93 124.198 162.226C124.493 162.521 124.677 162.779 124.567 162.779C124.456 162.779 124.714 163.37 125.12 164.071C125.6 164.92 125.785 165.658 125.6 166.212C125.453 166.692 125.49 166.913 125.711 166.766C125.896 166.655 126.302 167.024 126.597 167.652C127.077 168.648 127.077 168.796 126.597 169.054C126.302 169.239 125.896 169.313 125.674 169.202C125.453 169.128 124.567 168.98 123.644 168.87C122.721 168.722 121.318 168.574 120.506 168.464C119.693 168.39 118.512 168.279 117.848 168.205C117.22 168.168 116.555 167.984 116.371 167.836C116.223 167.688 115.3 167.578 114.303 167.578C112.716 167.578 112.531 167.504 112.347 166.581C112.199 165.991 111.793 165.105 111.424 164.551C111.018 163.96 110.722 163.222 110.722 162.89C110.722 162.521 110.87 161.967 111.054 161.672C111.239 161.377 111.534 161.229 111.682 161.377C111.867 161.487 112.051 160.86 112.088 159.974C112.162 158.94 111.904 157.722 111.424 156.615C110.981 155.618 110.427 154.327 110.168 153.736C109.873 153.145 109.725 152.518 109.836 152.37C109.91 152.186 109.873 152.075 109.689 152.075C109.541 152.112 109.209 151.558 108.913 150.894C108.655 150.229 107.769 148.347 106.993 146.723C106.218 145.099 105.554 143.475 105.554 143.142C105.554 142.773 105.406 142.404 105.184 142.293C104.963 142.183 104.963 141.777 105.258 141.186C105.517 140.669 105.886 140.263 106.107 140.263C106.329 140.263 107.436 139.267 108.581 138.049Z" fill="#FC4F7C"/>
<path d="M43.3458 146.169C43.3827 146.058 43.6042 145.542 43.8257 144.988V144.951C44.0472 144.397 44.3426 143.954 44.4534 143.954C44.5641 143.954 44.8964 144.213 45.1917 144.508C45.4871 144.803 45.8932 145.062 46.1147 145.062C46.2993 145.062 46.5208 144.767 46.5208 144.397C46.5577 143.807 46.5946 143.807 46.7054 144.397C46.8531 144.988 47.2222 145.025 50.065 144.877C51.874 144.767 53.6092 144.582 53.9783 144.471C54.3845 144.36 54.7167 144.545 54.7906 144.877C54.9013 145.173 54.7167 145.652 54.4214 145.874C54.0891 146.132 53.8307 146.649 53.8676 146.981C53.8676 147.35 53.683 147.646 53.4984 147.646C53.2769 147.646 53.2031 147.904 53.3138 148.199C53.4246 148.495 53.2769 148.827 53.0185 148.938C52.797 149.048 52.5385 149.602 52.5016 150.156C52.4647 150.709 52.2432 151.263 51.9478 151.411C51.6894 151.558 51.6156 151.706 51.7632 151.706C51.9478 151.706 51.8002 151.964 51.5048 152.26C51.1725 152.555 50.9141 153.145 50.9141 153.551C50.9141 153.957 50.8034 154.363 50.6188 154.437C50.4711 154.511 50.1019 155.323 49.8065 156.283C49.5112 157.243 49.142 157.981 48.9574 157.981C48.8097 157.981 48.5882 158.35 48.4775 158.793C48.3298 159.273 48.219 159.716 48.1821 159.826C48.1452 159.937 47.7022 160.897 47.2222 161.967C46.7054 163.038 46.1885 163.887 46.0039 163.887C45.8563 163.887 45.7455 164.403 45.7455 164.994C45.7455 165.585 45.5609 166.101 45.3763 166.101C45.1548 166.101 45.081 166.249 45.1917 166.47C45.3025 166.692 45.1179 167.061 44.8225 167.282C44.4903 167.541 44.2318 168.095 44.2318 168.501C44.2688 168.907 43.9365 169.756 43.5304 170.346C43.1243 170.937 42.792 171.749 42.792 172.081C42.792 172.45 42.6074 172.745 42.4228 172.745C42.2013 172.745 42.1275 172.893 42.2382 173.114C42.349 173.336 42.1644 173.742 41.8691 174.037C41.5737 174.333 41.3153 174.702 41.3153 174.849C41.3153 175.034 40.8353 176.104 40.2816 177.285C39.7278 178.43 39.174 179.389 38.9894 179.389C38.8417 179.389 38.731 179.279 38.731 179.094C38.731 178.946 38.3249 178.319 37.808 177.728C37.2911 177.138 36.885 176.473 36.885 176.252C36.885 176.03 36.5528 175.624 36.1467 175.329C35.7406 175.034 35.4083 174.48 35.4083 174.148C35.4083 173.779 35.2975 173.484 35.1129 173.484C34.9653 173.484 34.5961 173.041 34.3007 172.487C34.0054 171.933 33.4516 171.121 33.1193 170.715C32.7502 170.309 32.4917 169.866 32.4548 169.719C32.4548 169.534 31.9749 168.98 30.2766 167.393L31.458 164.883C32.6025 162.484 32.6763 162.373 33.9316 162.41C34.9653 162.41 35.4821 162.152 36.4051 161.118C37.0696 160.417 37.5496 159.679 37.4388 159.457C37.3281 159.236 37.4019 159.014 37.6234 158.904C37.808 158.793 37.9188 158.571 37.808 158.35C37.6972 158.128 37.7342 157.981 37.8818 157.981C38.0664 157.981 38.3987 157.538 38.6571 156.947C38.9156 156.394 39.1002 155.729 39.1002 155.471C39.1002 155.249 39.2478 155.028 39.4693 155.028C39.6539 155.028 39.8385 154.622 39.8385 154.105C39.8385 153.588 39.9862 153.182 40.2077 153.182C40.3923 153.182 40.6877 152.739 40.8353 152.149C40.9461 151.595 41.0938 151.041 41.0938 150.894C41.1307 150.746 41.3522 150.414 41.6106 150.156C41.8691 149.897 42.0906 149.565 42.0906 149.454C42.0906 149.307 42.3859 148.568 42.7182 147.793C43.0504 146.981 43.3089 146.28 43.3458 146.169Z" fill="#FC4F7C"/>
<path d="M28.7629 140.263C31.3472 134.468 33.6731 129.301 33.9315 128.747V128.71C34.1899 128.156 34.5222 127.713 34.7068 127.713C34.8914 127.713 35.3344 128.156 35.6667 128.71C36.0359 129.301 36.5158 130.002 36.7742 130.297C37.0327 130.592 38.1033 131.995 39.2109 133.435C41.0937 135.908 41.1675 136.055 40.7245 137.126C40.4661 137.716 39.6908 139.488 38.9893 141.001C38.2879 142.515 36.1835 147.166 34.3376 151.337C31.4949 157.685 31.0149 159.088 31.2364 159.974C31.421 160.601 32.0117 161.377 32.6394 161.746C33.267 162.115 33.4885 162.41 33.1931 162.41C32.8609 162.41 32.1594 163.407 30.2766 167.393L31.458 168.427C32.1225 168.98 32.5286 169.46 32.3809 169.423C32.1963 169.423 31.5687 169.054 30.9411 168.574C29.8335 167.762 29.7597 167.762 25.6987 168.242C23.4097 168.5 20.3085 168.87 18.7949 169.054C17.2812 169.202 15.9891 169.349 15.9152 169.313C15.8783 169.276 17.6873 165.068 19.9394 160.011C22.1914 154.917 26.1786 146.058 28.7629 140.263Z" fill="#D03C68"/>
<path d="M102.157 136.166C102.12 136.018 103.486 134.062 105.147 131.811C106.846 129.596 108.359 127.75 108.544 127.75C108.729 127.75 109.467 129.042 110.168 130.592C110.907 132.18 111.534 133.73 111.571 134.025C111.608 134.321 111.793 134.69 112.014 134.837C112.236 134.985 112.014 135.133 111.534 135.133C111.091 135.133 110.722 135.28 110.722 135.502C110.722 135.686 109.762 136.867 108.581 138.085C107.436 139.304 106.255 140.3 105.997 140.3C105.775 140.3 105.48 140.632 105.369 141.038C105.258 141.444 105.074 141.777 104.889 141.777C104.741 141.777 104.077 140.595 103.412 139.119C102.748 137.643 102.194 136.314 102.157 136.166Z" fill="#D03C68"/>
<path d="M48.7359 138.528C49.8434 138.492 51.9109 138.196 53.3138 137.938C54.7167 137.679 56.4518 137.421 57.0795 137.384C57.744 137.384 58.2978 137.384 58.2978 137.421C58.2978 137.495 57.5594 139.193 56.6364 141.223C55.7135 143.253 54.8643 144.988 54.7536 145.099C54.6798 145.209 54.6059 145.062 54.6059 144.803C54.6059 144.545 54.3106 144.434 53.9414 144.545C53.6091 144.619 51.8739 144.803 50.0649 144.914C47.1853 145.062 46.853 145.025 46.8161 144.434C46.7792 143.844 46.7423 143.844 46.6315 144.434C46.5577 144.803 46.3731 145.099 46.1885 145.099C46.0408 145.099 45.5609 144.766 44.2687 143.622L46.7792 138.639L48.7359 138.528Z" fill="#D03C68"/>
<path d="M86.6882 141.408C85.9129 139.673 85.2484 138.049 85.2484 137.79C85.2484 137.569 85.5068 137.347 85.8021 137.347C86.0975 137.347 87.7957 137.606 89.5678 137.901C91.3768 138.233 93.6289 138.528 94.6626 138.565C96.4716 138.676 96.5085 138.713 97.4315 140.485C97.9483 141.518 98.8344 143.401 99.4251 144.73C100.016 146.058 101.308 148.864 102.268 151.004C103.265 153.145 104.077 154.991 104.077 155.139C104.077 155.323 104.778 156.836 105.627 158.571C106.846 160.971 107.436 161.82 108.212 162.078C108.839 162.299 109.578 162.299 110.058 162.115C110.796 161.856 110.87 161.93 110.759 162.595C110.685 163.001 110.944 163.887 111.35 164.477C111.756 165.068 112.199 166.027 112.347 166.581C112.568 167.541 112.716 167.615 114.488 167.688C115.891 167.725 116.075 167.762 115.152 167.873C114.451 167.947 113.491 168.094 113.011 168.168C112.47 168.291 111.054 169.977 108.765 173.225C106.883 175.92 105.111 178.54 104.852 179.057C104.557 179.648 104.261 179.832 104.077 179.611C103.892 179.389 102.637 176.842 101.271 173.89C99.942 170.937 98.539 167.799 98.1699 166.876C97.8007 165.954 96.9146 163.96 96.2132 162.447C95.5426 161 93.9612 157.496 92.6299 154.546L92.4475 154.142C91.0815 151.078 89.5309 147.682 89.051 146.575C88.5341 145.468 87.5004 143.142 86.6882 141.408Z" fill="#D03C68"/>
<path d="M102.157 33.5156C102.12 32.7035 102.342 32.076 102.969 31.4854C103.56 30.8949 104.262 30.6365 105.148 30.6365C106.292 30.6734 106.846 31.0425 109.319 33.5156C110.907 35.0658 112.273 36.7638 112.384 37.2805C112.531 37.7973 112.384 38.6832 112.125 39.2368C111.867 39.7905 111.239 40.4549 110.722 40.6764C110.058 40.9348 109.504 40.9348 108.692 40.6395C108.101 40.418 106.366 39.0154 104.926 37.4651C102.822 35.3242 102.231 34.4383 102.157 33.5156Z" fill="#030203"/>
<path d="M67.6383 38.7939C67.8967 38.4986 68.7459 37.9818 69.5581 37.6127C70.3703 37.2436 71.2932 36.9114 71.5886 36.9114C71.8839 36.9114 72.8807 37.2805 73.8037 37.7235C75.2804 38.4617 75.6496 38.9415 77.1264 41.8944C78.0493 43.74 79.563 46.8775 80.5229 48.9076C81.4828 50.9377 82.5903 53.3739 82.9964 54.3705C83.4764 55.404 84.104 56.253 84.6209 56.4375C85.0639 56.5852 88.6819 57.1019 92.6322 57.5449C96.5825 58.0247 100.68 58.5415 101.677 58.726C102.711 58.8737 104.003 59.4274 104.594 59.8703C105.185 60.3501 105.886 61.2729 106.181 61.9373C106.44 62.5648 106.661 63.5983 106.661 64.2258C106.661 64.8533 106.44 65.7761 106.144 66.3667C105.849 66.9204 102.526 70.2424 98.7607 73.749C94.995 77.2186 91.8938 80.3192 91.8938 80.5776C91.8938 80.7991 92.6322 84.7486 93.5552 89.3256C94.4781 93.9026 95.2165 98.2581 95.2165 99.0333C95.2165 99.7715 94.9581 100.916 94.6627 101.506C94.3674 102.097 93.5552 102.983 92.9275 103.426C92.1153 103.942 91.1185 104.238 90.0479 104.275C88.6081 104.275 87.3528 103.684 71.5886 94.8623L63.2081 99.587C55.8243 103.684 54.5691 104.275 53.1293 104.275C52.0587 104.238 51.0618 103.942 50.2866 103.426C49.622 102.983 48.8098 102.097 48.5145 101.506C48.2191 100.916 47.9607 99.7715 47.9607 99.0333C47.9607 98.2581 48.6991 93.9026 49.622 89.3256C50.545 84.7486 51.2834 80.7991 51.2834 80.5776C51.2834 80.3192 48.1822 77.2186 44.3796 73.7121C39.9124 69.578 37.2543 66.8465 36.922 66.0345C36.5898 65.2594 36.479 64.2258 36.6267 63.3031C36.7374 62.491 37.1805 61.4206 37.5496 60.9038C37.9188 60.3871 38.8049 59.6857 39.5063 59.3535C40.3185 58.9475 43.7889 58.3938 49.2528 57.7663C53.9415 57.2127 58.1502 56.5852 58.5932 56.3637C59.2578 56.0315 60.4761 53.7061 63.3188 47.6157C65.4601 43.0387 67.3799 39.0892 67.6383 38.7939Z" fill="#030203"/>
<path d="M67.7861 52.2297C69.0782 49.3875 70.4442 46.4346 70.7765 45.6963C71.1087 44.9212 71.5148 44.2937 71.6994 44.2937C71.8471 44.2937 72.9916 46.656 74.2468 49.572C75.502 52.4511 77.3111 56.3637 78.234 58.2831C79.157 60.2025 80.1538 61.8635 80.4491 62.0112C80.7445 62.1957 84.8425 62.7494 89.4942 63.3031C94.1459 63.8567 98.3547 64.4104 98.7977 64.5211C99.5361 64.7426 99.1299 65.2225 95.1058 68.9136C92.6323 71.2021 89.4942 74.1181 88.1282 75.3731C85.8762 77.477 85.6177 77.8462 85.6177 79.175C85.6177 79.987 86.3561 84.3795 87.2791 88.9565C88.1651 93.5335 88.8297 97.2985 88.7558 97.3723C88.6451 97.4092 84.9901 95.4529 80.6337 93.0167C75.4282 90.1007 72.327 88.5874 71.5887 88.5874C70.8503 88.5874 67.7491 90.1007 62.5436 93.0167C58.1872 95.4529 54.5323 97.4092 54.4584 97.3723C54.3477 97.2985 55.0861 93.2013 56.0459 88.2183C57.3012 81.7957 57.7442 78.9166 57.5227 78.2522C57.3381 77.7354 54.6061 74.9302 51.4311 71.9772C48.2561 69.0243 45.155 66.1822 43.3459 64.6688L44.6381 64.4473C45.3396 64.3366 49.5852 63.7829 54.0523 63.2662C58.5195 62.7494 62.4329 62.1588 62.7282 62.0112C63.0236 61.8635 63.7619 60.7562 64.3526 59.575C64.9433 58.3569 66.4939 55.0718 67.7861 52.2297Z" fill="#FDFCD9"/>
</svg>
