<svg width="297" height="492" viewBox="0 0 297 492" fill="none" xmlns="http://www.w3.org/2000/svg">
<mask id="path-1-inside-1_1109_932" fill="white">
<path d="M0 30C0 13.4315 13.4315 0 30 0H267C283.569 0 297 13.4315 297 30V462C297 478.569 283.569 492 267 492H30C13.4315 492 0 478.569 0 462V30Z"/>
</mask>
<path d="M0 30C0 13.4315 13.4315 0 30 0H267C283.569 0 297 13.4315 297 30V462C297 478.569 283.569 492 267 492H30C13.4315 492 0 478.569 0 462V30Z" fill="#A073FF"/>
<path d="M-1 30C-1 12.8792 12.8792 -1 30 -1H266C283.121 -1 297 12.8792 297 30C297 13.9837 283.569 1 267 1H30C13.9837 1 1 13.9837 1 30H-1ZM297 492H0H297ZM30 492C12.8792 492 -1 478.121 -1 461V30C-1 12.8792 12.8792 -1 30 -1V1C13.9837 1 1 13.9837 1 30V462C1 478.569 13.9837 492 30 492ZM297 0V492V0Z" fill="#554780" mask="url(#path-1-inside-1_1109_932)"/>
</svg>
