<svg width="232" height="206" viewBox="0 0 232 206" fill="none" xmlns="http://www.w3.org/2000/svg">
<g filter="url(#filter0_d_964_788)">
<path d="M74.665 141.226C71.2959 141.226 68.3174 140.469 65.7295 138.955C63.1416 137.441 60.8467 135.439 58.8447 132.949C56.8916 130.41 55.207 127.505 53.791 124.233C52.4238 120.962 51.252 117.568 50.2754 114.053C49.3477 110.537 48.5908 106.997 48.0049 103.433C47.4678 99.8682 47.0527 96.5723 46.7598 93.5449C46.4668 90.4688 46.2715 87.7832 46.1738 85.4883C46.0762 83.1445 46.0273 81.4111 46.0273 80.2881C46.0273 75.5029 46.3203 71.6943 46.9062 68.8623C47.4922 65.9814 48.2246 63.8086 49.1035 62.3438C49.9824 60.8301 50.9346 59.8535 51.96 59.4141C52.9854 58.9258 53.9375 58.6816 54.8164 58.6816C57.0625 58.6816 58.5518 59.292 59.2842 60.5127C60.0654 61.6846 60.4561 63.3447 60.4561 65.4932C60.4561 67.251 60.2852 69.1064 59.9434 71.0596C59.6504 72.9639 59.5039 74.8193 59.5039 76.626C59.5039 77.7002 59.5283 79.2139 59.5771 81.167C59.626 83.1201 59.7236 85.3418 59.8701 87.832C60.0654 90.2734 60.3096 92.9346 60.6025 95.8154C60.9443 98.6475 61.3594 101.479 61.8477 104.312C62.3848 107.144 63.0195 109.878 63.752 112.515C64.5332 115.151 65.4365 117.52 66.4619 119.619C67.5361 121.67 68.7324 123.379 70.0508 124.746C71.418 126.064 72.9805 126.846 74.7383 127.09C76.7891 127.383 78.791 127.139 80.7441 126.357C82.6973 125.527 84.5039 124.307 86.1641 122.695C87.873 121.084 89.4111 119.155 90.7783 116.909C92.1943 114.614 93.3906 112.148 94.3672 109.512C95.3926 106.826 96.1738 104.043 96.7109 101.162C97.2969 98.2324 97.5898 95.3027 97.5898 92.373C97.5898 91.1035 97.5166 89.4922 97.3701 87.5391C97.2236 85.5371 97.0527 83.4619 96.8574 81.3135C96.7109 79.165 96.5645 77.0898 96.418 75.0879C96.2715 73.0371 96.1982 71.3037 96.1982 69.8877C96.1982 69.3018 96.3447 68.5449 96.6377 67.6172C96.9795 66.6406 97.4922 65.7129 98.1758 64.834C98.8594 63.9062 99.7139 63.125 100.739 62.4902C101.813 61.8555 103.083 61.5381 104.548 61.5381C105.427 61.5381 106.257 61.7822 107.038 62.2705C107.868 62.7588 108.601 63.3691 109.235 64.1016C109.919 64.7852 110.456 65.5176 110.847 66.2988C111.237 67.0801 111.457 67.7881 111.506 68.4229C111.604 69.9854 111.652 71.8408 111.652 73.9893C111.701 76.0889 111.726 78.2129 111.726 80.3613C111.774 83.291 111.823 86.3916 111.872 89.6631C111.97 92.8857 112.141 96.084 112.385 99.2578C112.629 102.432 112.995 105.459 113.483 108.34C113.972 111.221 114.655 113.76 115.534 115.957C116.413 118.105 117.487 119.839 118.757 121.157C120.075 122.427 121.687 123.062 123.591 123.062C125.983 123.062 128.425 122.695 130.915 121.963C133.405 121.182 135.798 120.083 138.093 118.667C140.437 117.202 142.634 115.42 144.685 113.32C146.784 111.172 148.591 108.706 150.104 105.923C151.667 103.14 152.888 100.063 153.767 96.6943C154.646 93.2764 155.085 89.5654 155.085 85.5615C155.085 84.5361 155.036 83.2422 154.938 81.6797C154.89 80.0684 154.768 78.3105 154.572 76.4062C154.377 74.502 154.108 72.5488 153.767 70.5469C153.425 68.4961 152.985 66.543 152.448 64.6875C152.204 63.8574 151.862 63.0273 151.423 62.1973C151.032 61.3672 150.642 60.5371 150.251 59.707C149.86 58.877 149.519 58.0469 149.226 57.2168C148.933 56.3379 148.786 55.459 148.786 54.5801C148.786 52.3828 149.372 50.5273 150.544 49.0137C151.765 47.4512 153.693 46.6699 156.33 46.6699C157.014 46.6699 157.746 46.792 158.527 47.0361C159.357 47.2314 160.114 47.6221 160.798 48.208C161.53 48.7939 162.165 49.5752 162.702 50.5518C163.239 51.5283 163.605 52.7734 163.801 54.2871C163.947 54.9219 164.24 56.2158 164.68 58.1689C165.119 60.0732 165.559 62.3682 165.998 65.0537C166.486 67.7393 166.901 70.6445 167.243 73.7695C167.634 76.8457 167.829 79.873 167.829 82.8516C167.829 87.832 167.243 92.6416 166.071 97.2803C164.948 101.919 163.361 106.265 161.311 110.317C159.26 114.37 156.818 118.081 153.986 121.45C151.203 124.771 148.151 127.627 144.831 130.02C141.511 132.412 137.995 134.268 134.284 135.586C130.573 136.904 126.813 137.563 123.005 137.563C120.271 137.563 117.854 137.002 115.754 135.879C113.703 134.756 111.872 133.218 110.261 131.265C108.649 129.312 107.233 127.065 106.013 124.526C104.792 121.938 103.669 119.18 102.644 116.25C101.472 119.277 99.9092 122.28 97.9561 125.259C96.0518 128.237 93.8545 130.923 91.3643 133.315C88.9229 135.659 86.2617 137.563 83.3809 139.028C80.5488 140.493 77.6436 141.226 74.665 141.226Z" fill="#F5B14A"/>
</g>
<defs>
<filter id="filter0_d_964_788" x="0.0273438" y="0.669922" width="231.802" height="204.556" filterUnits="userSpaceOnUse" color-interpolation-filters="sRGB">
<feFlood flood-opacity="0" result="BackgroundImageFix"/>
<feColorMatrix in="SourceAlpha" type="matrix" values="0 0 0 0 0 0 0 0 0 0 0 0 0 0 0 0 0 0 127 0" result="hardAlpha"/>
<feOffset dx="9" dy="9"/>
<feGaussianBlur stdDeviation="27.5"/>
<feComposite in2="hardAlpha" operator="out"/>
<feColorMatrix type="matrix" values="0 0 0 0 0 0 0 0 0 0 0 0 0 0 0 0 0 0 0.25 0"/>
<feBlend mode="normal" in2="BackgroundImageFix" result="effect1_dropShadow_964_788"/>
<feBlend mode="normal" in="SourceGraphic" in2="effect1_dropShadow_964_788" result="shape"/>
</filter>
</defs>
</svg>
