<svg width="20" height="20" viewBox="0 0 20 20" fill="none" xmlns="http://www.w3.org/2000/svg">
<path fill-rule="evenodd" clip-rule="evenodd" d="M2.05986 8.08848C1.279 8.08848 0.6188 8.72091 0.585267 9.50105C0.551733 10.2812 1.15756 10.9136 1.93842 10.9136L8.08597 10.9136L8.08597 17.0582C8.08597 17.8409 8.71991 18.4482 9.50192 18.4146C10.2839 18.381 10.9179 17.7192 10.9179 16.9365L10.9179 10.9136H16.9378C17.7186 10.9136 18.3788 10.2812 18.4124 9.50105C18.4459 8.72091 17.8401 8.08848 17.0592 8.08848L10.9179 8.08848L10.9179 1.94387C10.9179 1.16114 10.2839 0.553863 9.50192 0.587476C8.71991 0.62109 8.08597 1.28287 8.08597 2.0656L8.08597 8.08848L2.05986 8.08848Z" fill="#F3F3F3"/>
</svg>
