<svg width="43" height="42" viewBox="0 0 43 42" fill="none" xmlns="http://www.w3.org/2000/svg">
<path d="M20.1142 38.1206C20.2402 38.0041 20.7021 37.821 21.3992 37.6129C21.9955 37.4382 22.6338 37.2884 22.8017 37.28C22.9781 37.28 23.2384 37.33 23.3728 37.3965C23.5072 37.4631 23.6836 37.6462 23.7592 37.7877C23.8347 37.9375 24.0279 38.4951 24.1791 39.0194C24.3386 39.5437 24.4646 40.1346 24.4646 40.326C24.4646 40.609 24.4058 40.7421 24.1959 40.9835C23.9523 41.2415 23.7759 41.3164 22.7849 41.5993C22.1634 41.7824 21.5336 41.9322 21.3992 41.9239C21.2648 41.9239 21.0213 41.8573 20.8785 41.7658C20.7273 41.6742 20.5677 41.5327 20.5258 41.4495C20.4838 41.3746 20.3158 40.8586 20.1562 40.3094C19.9967 39.7601 19.8455 39.2191 19.8119 39.1026C19.7867 38.9861 19.8035 38.7614 19.8455 38.6033C19.8875 38.4452 20.0051 38.2288 20.1142 38.1206Z" fill="#F2869A"/>
<path d="M35.5505 23.1736C35.7605 23.0987 36.8019 22.924 37.8601 22.7908C38.9183 22.6577 39.9933 22.5661 40.2369 22.5828C40.472 22.6077 40.8163 22.6993 40.9927 22.7825C41.1607 22.874 41.4294 23.0655 41.589 23.2236C41.7486 23.3734 41.9417 23.6563 42.0257 23.8561C42.1265 24.0725 42.1853 24.397 42.1853 24.7299C42.1853 25.0961 42.1265 25.3707 41.9921 25.662C41.883 25.8951 41.6646 26.1863 41.505 26.3195C41.3455 26.4527 41.0935 26.6108 40.9507 26.6774C40.7996 26.7356 40.1529 26.8604 39.523 26.9437C38.8847 27.0352 37.9273 27.1684 37.3982 27.235C36.8691 27.3099 36.3316 27.3681 36.2056 27.3681C36.0712 27.3681 35.9705 27.3931 35.9705 27.4264C35.9705 27.468 36.5247 28.1671 37.1966 28.991C37.8853 29.8315 38.532 30.7054 38.6664 30.9883C38.8007 31.263 38.9519 31.7124 39.0023 31.987C39.0695 32.3532 39.0695 32.6195 39.0023 32.9857C38.9519 33.2603 38.6412 34.1425 38.322 34.9414C38.0029 35.7404 37.6081 36.5893 37.4402 36.814C37.2806 37.047 36.9615 37.3716 36.7431 37.5463C36.5247 37.7128 36.1384 37.9292 35.8865 38.029C35.6093 38.1289 34.7947 38.2787 33.8708 38.3952C33.0142 38.5034 32.0568 38.6116 31.7292 38.6449C31.2841 38.6948 31.0322 38.6699 30.6794 38.57C30.4275 38.4951 30.0747 38.312 29.89 38.1622C29.7136 38.0124 29.4701 37.6878 29.3525 37.4382C29.2013 37.1219 29.1341 36.8389 29.1341 36.5227C29.1341 36.1981 29.2013 35.9235 29.3609 35.5906C29.5205 35.2411 29.6968 35.0247 29.9908 34.8166C30.2091 34.6668 30.5535 34.492 30.7634 34.4504C30.9734 34.4005 32.0652 34.2507 33.199 34.1092C34.3328 33.9677 35.3238 33.8263 35.4078 33.793C35.5337 33.743 35.3238 33.4767 34.232 32.2284C33.4593 31.3545 32.8126 30.5306 32.6867 30.2726C32.5607 30.0229 32.4179 29.5985 32.3591 29.3239C32.3003 29.0492 32.2751 28.6248 32.3087 28.3834C32.3339 28.1421 32.6279 27.2932 32.9554 26.4776C33.283 25.662 33.6357 24.8464 33.7449 24.6633C33.854 24.4803 34.0808 24.1807 34.2572 24.0059C34.4419 23.8228 34.7191 23.5981 34.8787 23.4982C35.0382 23.3984 35.3406 23.2569 35.5505 23.1736Z" fill="#987DE6"/>
<path d="M7.02104 29.8066C7.02944 29.7982 7.68451 29.6068 8.46557 29.3821C9.24662 29.1574 10.0361 28.966 10.2124 28.9577C10.5148 28.9494 10.5316 28.9577 10.8003 29.507C11.0523 30.0313 11.0691 30.1311 11.0607 30.9051C11.0523 31.7207 11.0439 31.7706 10.4056 33.5683C10.0529 34.5753 9.73373 35.4241 9.70014 35.4491C9.66655 35.4824 9.32221 35.5906 8.92748 35.6905C8.53276 35.7903 7.89448 35.9485 7.49975 36.04C7.10502 36.1315 6.7103 36.2397 6.61791 36.2897C6.52553 36.3313 6.42475 36.3396 6.39115 36.298C6.35756 36.2647 6.23158 36.0234 6.10561 35.7737C5.90405 35.3909 5.86205 35.1828 5.83686 34.5253C5.80326 33.743 5.81166 33.7097 6.39955 31.779C6.72709 30.7054 7.00424 29.8149 7.02104 29.8066Z" fill="#987DE6"/>
<path d="M6.25684 4.64807C6.4416 4.16537 6.60957 3.74925 6.62637 3.71596C6.65156 3.67435 6.76914 3.64939 6.89512 3.64939C7.02109 3.64106 7.18066 3.70764 7.25625 3.79087C7.33184 3.87409 7.525 4.29853 7.69297 4.73129C7.85254 5.16405 8.0373 5.54688 8.10449 5.58849C8.16328 5.62178 8.5832 5.8132 9.85137 6.39576L9.83457 6.70369C9.81777 6.92007 9.75898 7.0449 9.63301 7.10316C9.54062 7.14477 9.1291 7.33619 7.99531 7.85217L7.75176 8.51796C7.61738 8.88414 7.45781 9.27529 7.39062 9.39181C7.30664 9.55825 7.22266 9.59986 6.95391 9.59986C6.68516 9.59986 6.60117 9.55825 6.51719 9.39181C6.45 9.27529 6.29043 8.88414 5.9041 7.85217L4.18242 7.01994V6.36247L4.8543 6.04622C5.22383 5.87145 5.61855 5.68004 5.72773 5.6301C5.87051 5.54688 6.01328 5.28057 6.25684 4.64807Z" fill="#97B6F2"/>
<path d="M24.6998 6.12945C24.8258 5.98797 25.0777 5.79655 25.2625 5.72165C25.4473 5.63843 25.7412 5.56353 25.9176 5.56353C26.0855 5.56353 26.3291 5.60514 26.4635 5.65507C26.5895 5.69668 26.7994 5.83816 26.9254 5.963C27.0598 6.08783 27.2193 6.28757 27.2865 6.42073C27.3537 6.54556 27.4041 6.83684 27.4041 7.06155C27.4041 7.29457 27.3537 7.6025 27.2949 7.7523C27.2277 7.89378 27.0598 8.11849 26.917 8.25164C26.7658 8.37648 26.4887 8.51796 26.2955 8.56789C26.0939 8.61783 25.8 8.63447 25.6404 8.60118C25.4809 8.56789 25.2289 8.47635 25.0945 8.39312C24.9602 8.3099 24.7502 8.11849 24.641 7.96036C24.5234 7.81056 24.4143 7.53592 24.3975 7.35283C24.3723 7.16974 24.3807 6.87846 24.4143 6.71201C24.4395 6.53724 24.5654 6.27925 24.6998 6.12945Z" fill="#97B6F2"/>
<path d="M1.075 26.9187C1.20938 26.8354 2.1752 26.5358 3.2166 26.2446C5.06426 25.7202 5.12305 25.7119 5.98809 25.7286C6.79434 25.7535 6.92031 25.7785 7.41582 26.0282C7.85254 26.2446 8.20527 26.5442 9.19629 27.5595C9.87656 28.2586 10.4393 28.8495 10.4393 28.8911C10.4393 28.9244 10.3553 28.9493 10.2545 28.9493C10.1453 28.9493 9.38105 29.1324 8.54961 29.3571C7.71816 29.5901 5.96289 30.0395 4.64434 30.3641C2.79668 30.8302 2.1752 30.9467 1.91484 30.9134C1.73008 30.8801 1.39414 30.7719 1.15898 30.6637C0.923828 30.5472 0.629883 30.3225 0.495508 30.1394C0.352734 29.9646 0.193164 29.69 0.125977 29.5319C0.0587891 29.3738 0.00839844 29.0325 0 28.7829C0 28.4916 0.0671875 28.167 0.176367 27.909C0.277148 27.6843 0.461914 27.393 0.587891 27.2765C0.722266 27.16 0.940625 26.9936 1.075 26.9187Z" fill="#97B6F2"/>
<path d="M9.09551 35.6571C9.58262 35.5406 10.9432 35.1994 12.1189 34.8998C13.9078 34.4504 14.3529 34.3672 14.8484 34.3838C15.3271 34.4005 15.5119 34.4504 15.8562 34.6585C16.083 34.7916 16.377 35.0579 16.5029 35.2327C16.6205 35.4158 16.7717 35.732 16.8305 35.9401C16.8893 36.1648 16.9061 36.4977 16.8725 36.7723C16.8389 37.0636 16.7297 37.3632 16.5785 37.6046C16.4441 37.8126 16.1754 38.0956 15.9738 38.2287C15.7471 38.3869 15.26 38.57 14.7225 38.7198C14.2354 38.8529 13.5383 39.0443 13.1687 39.1442C12.7992 39.2524 12.1777 39.4022 11.783 39.4854C11.1699 39.6102 10.9852 39.6186 10.498 39.5353C10.1873 39.4771 9.7002 39.319 9.41465 39.1775C9.00313 38.9777 8.64199 38.6698 7.76855 37.7793C7.15547 37.1552 6.61797 36.5809 6.57598 36.506C6.50879 36.3895 6.52559 36.3396 6.63477 36.2813C6.71875 36.2397 7.10508 36.1315 7.4998 36.04C7.89453 35.9484 8.6084 35.7736 9.09551 35.6571Z" fill="#97B6F2"/>
<path d="M32.905 0.611773C32.9974 0.378747 33.1066 0.145722 33.1486 0.0874651C33.1906 0.0208863 33.3417 -0.0124031 33.5181 0.00424163C33.7449 0.0208863 33.8456 0.0791427 33.9212 0.237267C33.98 0.353736 34.0807 0.586629 34.1563 0.761376L34.1564 0.761575C34.274 1.01957 34.3832 1.11111 34.9207 1.36078C35.5001 1.6271 35.5505 1.66871 35.5505 1.90174C35.5505 2.13476 35.5001 2.17637 34.9207 2.44269C34.4419 2.66739 34.274 2.79223 34.2068 2.967C34.1564 3.09183 34.0556 3.32486 33.9716 3.48298C33.8457 3.74098 33.7953 3.77426 33.5013 3.77426C33.1738 3.77426 33.1654 3.76594 32.9806 3.31654C32.8798 3.06687 32.6867 2.77558 32.5523 2.67571C32.4263 2.57585 32.1828 2.45933 32.0232 2.4094C31.8636 2.36779 31.6789 2.27624 31.6201 2.21799C31.5613 2.15973 31.5277 2.00161 31.5361 1.86013C31.5613 1.64374 31.6369 1.57717 32.1492 1.31917C32.6783 1.05286 32.7455 0.994601 32.905 0.611773Z" fill="#FDB687"/>
<path d="M15.8898 9.9328C15.9654 9.90784 16.1585 9.83293 16.3181 9.76635C16.4777 9.69978 16.822 9.64984 17.074 9.64984C17.3847 9.64152 17.6703 9.7081 17.9558 9.84126C18.191 9.94112 18.5101 10.1741 18.6781 10.3572C18.8376 10.532 19.0392 10.8899 19.1232 11.1395C19.224 11.4391 19.266 11.7304 19.2324 11.9718C19.2156 12.1798 19.1064 12.5127 19.0056 12.7208C18.8964 12.9288 18.6613 13.3034 18.4681 13.553C18.2833 13.8027 17.9306 14.2937 17.6787 14.6349C17.4351 14.9761 17.0236 15.567 16.7548 15.9499C16.4945 16.3244 16.2593 16.6323 16.2341 16.6323C16.2089 16.6323 15.7806 17.1732 15.2683 17.839C14.7644 18.5048 14.2689 19.0707 14.1765 19.0957C14.0841 19.1207 14.0001 19.129 14.0001 19.1124C13.9928 19.0978 13.7743 18.6331 13.4899 18.0282L13.3619 17.7558C12.9335 16.8487 12.6984 16.2411 12.6312 15.8666C12.5556 15.4006 12.564 15.1925 12.6648 14.7015C12.7404 14.3686 12.9083 13.8942 13.0427 13.6612C13.1855 13.4199 13.6306 12.7624 14.0505 12.2048C14.4621 11.6389 15.0164 10.9148 15.2851 10.5819C15.5455 10.2491 15.8226 9.95777 15.8898 9.9328Z" fill="#FDB687"/>
<path d="M38.8931 12.6625C38.8931 12.3796 38.9267 12.288 39.0863 12.1798C39.229 12.0883 39.3802 12.0633 39.5818 12.0966C39.7414 12.1299 39.9261 12.1965 39.9849 12.2464C40.0437 12.3047 40.0941 12.4711 40.0857 12.6209C40.0857 12.7624 40.0269 12.9788 39.9597 13.0953C39.8589 13.2617 39.7666 13.3034 39.523 13.3034C39.3382 13.3034 39.1367 13.2368 39.0527 13.1535C38.9603 13.0703 38.9015 12.8789 38.8931 12.6625Z" fill="#FDB687"/>
<path d="M3.49369 18.2135C3.88002 17.4645 4.08998 17.1566 4.30834 17.0068C4.46791 16.8986 4.71987 16.8071 4.85424 16.8071C5.00541 16.7987 5.55971 17.0234 6.23159 17.3647C7.02104 17.7558 7.43256 18.0138 7.60053 18.2135C7.7601 18.405 7.83569 18.6047 7.83569 18.7961C7.83569 18.9875 7.67612 19.4036 7.36537 20.0028C7.10502 20.5105 6.76069 21.0764 6.60952 21.2762C6.33237 21.6091 6.30717 21.6257 5.86205 21.6257C5.6101 21.6257 5.33295 21.5924 5.25737 21.5508C5.17338 21.5009 4.80385 21.3261 4.43432 21.143C4.06479 20.9599 3.63647 20.7435 3.4769 20.6603C3.32573 20.5688 3.12416 20.369 3.03178 20.2109C2.9142 19.9945 2.88061 19.8281 2.9142 19.5701C2.9478 19.3703 3.19975 18.7711 3.49369 18.2135Z" fill="#FDB687"/>
<path d="M21.7099 19.878C21.9871 19.4869 22.3314 19.0707 22.4742 18.9459C22.6253 18.8211 22.7681 18.7129 22.8101 18.7129C22.8437 18.7129 22.9865 18.9625 23.1292 19.2788C23.2804 19.5867 23.5492 20.1526 23.7255 20.5438C23.9103 20.9349 24.1119 21.401 24.179 21.5841C24.2462 21.7672 24.2966 22.2083 24.2966 22.5661C24.2966 22.9157 24.2378 23.4067 24.1706 23.648C24.0951 23.8811 23.9523 24.2139 23.8515 24.3804C23.7507 24.5468 23.482 24.938 23.2468 25.2459C23.0201 25.5538 22.491 26.2529 22.071 26.8105C21.4244 27.676 21.248 27.8508 20.8533 28.0506C20.4921 28.242 20.2822 28.2919 19.8706 28.2836C19.4675 28.2836 19.224 28.2253 18.8712 28.0589C18.6109 27.9257 18.2917 27.6927 18.1658 27.5346C18.0482 27.3764 17.8886 27.1101 17.8214 26.952C17.7626 26.7939 17.7039 26.436 17.7123 26.1614C17.7123 25.8202 17.771 25.5455 17.897 25.2875C17.9978 25.0795 18.4513 24.397 18.9048 23.7729C19.3499 23.1487 19.9294 22.3331 20.1814 21.9586C20.4333 21.5924 20.7693 21.1264 20.9289 20.9349C21.08 20.7435 21.4328 20.2692 21.7099 19.878Z" fill="#FDB687"/>
<path d="M11.2707 2.49264C11.2623 2.31787 11.3295 2.20136 11.4975 2.07652C11.6234 1.97666 11.7998 1.90175 11.9006 1.90175C12.0014 1.89343 12.1777 1.96833 12.3121 2.0682C12.4885 2.19304 12.5389 2.30123 12.5389 2.54258C12.5473 2.74231 12.4885 2.90876 12.3961 2.99198C12.3121 3.06688 12.1609 3.15011 12.0602 3.1834C11.951 3.20836 11.7662 3.1834 11.6402 3.11682C11.5059 3.05856 11.3799 2.94205 11.3463 2.86715C11.3043 2.79225 11.2791 2.6258 11.2707 2.49264Z" fill="#F2869A"/>
<path d="M14.2018 19.0874C14.2774 19.0708 14.7561 18.5048 15.2684 17.8307L16.1922 16.6157L16.8641 16.6656C17.2336 16.6906 18.1238 16.7488 18.8377 16.7988C19.5516 16.8487 20.3662 16.9486 20.6434 17.0151C20.9205 17.0817 21.3152 17.2398 21.5252 17.3647C21.7352 17.4812 22.0291 17.6976 22.1887 17.839C22.3399 17.9722 22.5498 18.2136 22.827 18.6463L22.491 18.9459C22.3063 19.1207 21.9031 19.6117 21.5924 20.0445C21.2817 20.4772 20.9541 20.91 20.8533 21.0015C20.677 21.1597 20.5678 21.168 19.0561 21.143C18.1742 21.1264 17.1664 21.0764 16.8221 21.0348C16.4526 20.9932 15.9822 20.8601 15.6883 20.7269C15.4111 20.5937 15.0332 20.3607 14.8568 20.2026C14.6721 20.0445 14.4201 19.7698 14.2858 19.5867C14.1514 19.4037 14.0506 19.2289 14.0506 19.1873C14.0506 19.154 14.1178 19.1124 14.2018 19.0874Z" fill="#F2869A"/>
<path d="M30.9314 12.571C31.1834 12.4296 31.5109 12.2631 31.6453 12.1882C31.7797 12.1133 31.9896 12.0551 32.1072 12.0551C32.2248 12.0551 32.4515 12.08 32.6111 12.0967C32.7707 12.1216 33.0562 12.2631 33.241 12.4212C33.4258 12.571 33.6861 12.879 33.8205 13.1037C33.9465 13.3284 34.1732 13.7195 34.316 13.9692C34.4504 14.2189 34.6351 14.5185 34.7107 14.635C34.7947 14.7515 34.9795 15.0677 35.1222 15.3424C35.2818 15.6586 35.3742 15.9666 35.3742 16.1746C35.3742 16.3577 35.2902 16.674 35.1894 16.882C35.0635 17.1483 34.8535 17.3647 34.5008 17.6061C34.2236 17.7975 33.9717 17.9556 33.9297 17.9556C33.8961 17.9639 33.6693 18.0804 33.4342 18.2219C33.1906 18.3717 32.8211 18.5798 32.6111 18.6963C32.4011 18.8045 32.1744 18.946 32.1072 19.0042C32.04 19.0625 31.8049 19.1457 31.5781 19.2039C31.2926 19.2705 31.091 19.2705 30.8306 19.2039C30.6291 19.154 30.3519 19.0292 30.2176 18.9293C30.0832 18.8211 29.7388 18.3551 29.4701 17.8724C29.1929 17.398 28.9074 16.9153 28.8318 16.7988C28.7562 16.6823 28.5631 16.366 28.4119 16.0914C28.1767 15.6753 28.1263 15.5088 28.1263 15.0927C28.1347 14.7016 28.1767 14.5268 28.3279 14.3021C28.4371 14.144 28.6051 13.9525 28.6974 13.886C28.7898 13.8194 29.0334 13.6613 29.2433 13.5448C29.4533 13.4282 29.8144 13.2119 30.0496 13.0704C30.2763 12.9289 30.6795 12.7042 30.9314 12.571Z" fill="#7AEEC5"/>
</svg>
